<?xml version="1.0" standalone="no"?>
<!DOCTYPE svg PUBLIC "-//W3C//DTD SVG 1.1//EN" "http://www.w3.org/Graphics/SVG/1.1/DTD/svg11.dtd" >
<!--
2013-9-30: Created.
-->
<svg>
<metadata>
Created by iconfont
</metadata>
<defs>

<font id="iconfont" horiz-adv-x="1024" >
  <font-face
    font-family="iconfont"
    font-weight="500"
    font-stretch="normal"
    units-per-em="1024"
    ascent="896"
    descent="-128"
  />
    <missing-glyph />
    
    <glyph glyph-name="x" unicode="x" horiz-adv-x="1001"
d="M281 543q-27 -1 -53 -1h-83q-18 0 -36.5 -6t-32.5 -18.5t-23 -32t-9 -45.5v-76h912v41q0 16 -0.5 30t-0.5 18q0 13 -5 29t-17 29.5t-31.5 22.5t-49.5 9h-133v-97h-438v97zM955 310v-52q0 -23 0.5 -52t0.5 -58t-10.5 -47.5t-26 -30t-33 -16t-31.5 -4.5q-14 -1 -29.5 -0.5
t-29.5 0.5h-32l-45 128h-439l-44 -128h-29h-34q-20 0 -45 1q-25 0 -41 9.5t-25.5 23t-13.5 29.5t-4 30v167h911zM163 247q-12 0 -21 -8.5t-9 -21.5t9 -21.5t21 -8.5q13 0 22 8.5t9 21.5t-9 21.5t-22 8.5zM316 123q-8 -26 -14 -48q-5 -19 -10.5 -37t-7.5 -25t-3 -15t1 -14.5
t9.5 -10.5t21.5 -4h37h67h81h80h64h36q23 0 34 12t2 38q-5 13 -9.5 30.5t-9.5 34.5q-5 19 -11 39h-368zM336 498v228q0 11 2.5 23t10 21.5t20.5 15.5t34 6h188q31 0 51.5 -14.5t20.5 -52.5v-227h-327z" />
    

    
    <glyph glyph-name="gongjufuwu" unicode="&#58981;" d="M392.064 211.296 220.992 40.16l-30.4 30.464 171.136 171.072L313.856 289.568l-219.712-219.712L94.08 69.856l0 0 0 0 0-0.064-88.768-273.152 273.152 88.704 0 0 0.064 0 0.064 0.064 0 0.064 219.648 219.648L392.064 211.296zM568.768 448.8l79.232 79.232L678.4 497.632 599.104 418.464l106.24-106.176 126.528 126.592L647.488 623.2 520.96 496.608 568.768 448.8zM831.488 807.2l-121.344-121.408 184.384-184.384 121.472 121.344L831.488 807.2zM789.888 235.232c-21.888 0-45.248-7.168-68.352-19.008L427.968 509.728C439.744 532.832 446.784 556 446.784 577.312c0 116.736-110.976 229.76-227.648 229.76-0.768 0-1.408 0-2.176 0-0.448 0-13.696-13.44-20.928-20.672 94.144-94.144 86.4-78.848 86.4-136.576 0-46.848-75.072-120.832-120.832-120.832-10.048 0-17.856-0.256-24.32-0.256-31.872 0-32.32 6.72-112.192 86.656C17.536 607.904 4.288 594.784 4.288 594.4c1.408-117.44 112.384-229.76 229.824-229.76 21.248 0 44.032 6.72 66.432 18.048l294.592-294.528c-11.264-22.4-17.856-44.928-17.856-65.536 0-116.736 110.976-229.824 227.648-229.824 0.64 0 1.344 0 2.112 0 0.512 0 13.76 13.504 20.864 20.736-94.016 94.144-86.272 78.784-86.272 136.576 0 46.784 75.008 120.832 120.768 120.832 9.984 0 17.856 0.256 24.384 0.256 31.872 0 32.384-6.72 112.256-86.656 7.488 7.424 20.608 20.48 20.736 20.928C1018.24 122.848 907.392 235.232 789.888 235.232L789.888 235.232zM789.888 235.232"  horiz-adv-x="1024" />

    
    <glyph glyph-name="jiangpaixiankuang" unicode="&#58939;" d="M742.912 89.92c3.84 3.136 8.064 5.76 11.776 9.056 7.424 6.624 11.36 16.352 10.688 26.272l-3.68 50.976 50.528 7.776c9.92 1.536 18.56 7.616 23.296 16.448 29.184 53.984 44.544 115.104 44.544 176.8 0 4.16-0.256 8.256-0.544 12.32l-0.32 4.768c-0.48 9.984-5.6 19.136-13.792 24.8l-42.144 29.12 25.984 45.472c4.896 8.64 5.536 19.072 1.696 28.256-25.984 61.504-68.416 115.072-122.848 154.976-8.16 5.984-18.656 7.744-28.352 4.768l-49.024-15.136L631.68 715.04c-3.648 9.344-11.488 16.448-21.152 19.136-65.504 18.336-131.52 18.336-196.992 0-9.696-2.688-17.536-9.792-21.184-19.136l-18.976-48.448-49.056 15.136C314.656 684.704 304.128 682.944 295.968 676.96 241.504 637.088 199.04 583.488 173.152 522.016 169.28 512.832 169.888 502.368 174.816 493.728l25.92-45.472-42.144-29.12c-8.256-5.696-13.344-14.912-13.792-24.896L144.512 389.28C144.256 385.28 144 381.312 144 377.248c0-61.728 15.392-122.88 44.512-176.8 4.768-8.864 13.376-14.912 23.296-16.448l50.528-7.776-3.712-50.976c-0.736-9.952 3.232-19.648 10.688-26.272 3.552-3.168 7.584-5.664 11.264-8.672l-85.824-140.448c-7.712-12.672-7.2-28.128 1.344-39.36 8.544-11.2 23.328-15.808 37.472-11.776l79.616 22.336 49.408-57.024c7.136-8.192 16.864-12.672 27.008-12.672 2.432 0 4.896 0.288 7.424 0.8 12.672 2.72 22.56 12.064 26.464 25.024l40.928 136.896c3.904 1.472 7.616 3.552 10.752 6.496L512 54.912l36.8-34.272c6.016-5.6 13.824-8.64 21.856-8.64 1.92 0 3.712 0.16 5.6 0.512 40.16 7.136 78.272 21.696 113.696 41.504L736-19.136 716.288-13.6c-15.392 4.416-32.768-0.736-43.328-12.8l-27.296-31.328-4.896 13.6c-5.952 16.672-24.256 25.408-40.896 19.296-16.672-5.984-25.28-24.32-19.296-40.928l21.12-58.752c4.448-12.32 14.496-21.12 27.008-23.456 2.112-0.416 4.352-0.608 6.496-0.608 10.176 0 20 4.512 27.072 12.672l49.856 57.088 80.224-22.368c14.496-4.032 29.248 0.672 37.76 11.968 8.512 11.36 8.832 26.912 0.832 39.552L742.912 89.92zM376.992-54.784l-24.576 28.352c-10.496 12.096-27.968 17.28-43.168 12.896L288.576-19.36l44.992 73.664c21.408-12.032 43.648-22.528 67.04-30.016L376.992-54.784zM533.824 122.016c-12.288 11.424-31.328 11.424-43.616 0l-46.592-43.328c-43.712 10.144-84.672 30.016-120 58.208l4.64 64.16c1.216 16.64-10.56 31.392-27.04 33.952L237.76 244.736c-19.264 40.608-29.504 85.408-29.76 130.72l53.28 36.768c13.632 9.44 17.824 27.744 9.6 42.176L238.496 511.264c19.456 40.224 47.712 75.904 82.784 104.416l61.6-19.008C398.976 591.648 416 600 422.144 615.584l23.84 60.832c44.192 10.08 87.84 10.08 132.064 0l23.872-60.832C608 600 625.088 591.712 641.12 596.672l61.6 19.008c35.104-28.512 63.328-64.192 82.784-104.416l-32.416-56.832c-8.224-14.432-4.032-32.768 9.632-42.176l53.28-36.768c-0.256-45.28-10.496-90.112-29.76-130.72l-63.456-9.792c-16.48-2.528-28.256-17.312-27.04-33.952l4.64-64.16c-35.296-28.192-76.288-48.064-119.936-58.208L533.824 122.016zM512 157.984c-122.4 0-222.016 99.552-222.016 222.016S389.6 602.016 512 602.016s222.016-99.584 222.016-222.016S634.4 157.984 512 157.984zM512 538.016c-87.136 0-158.016-70.88-158.016-158.016s70.88-158.016 158.016-158.016c87.136 0 158.016 70.848 158.016 158.016S599.136 538.016 512 538.016z"  horiz-adv-x="1024" />

    
    <glyph glyph-name="iconfontcolor39" unicode="&#59011;" d="M1.984 666.512c0 0-44.976-228.992 293.6-567.568 2.464-2.448 4.832-4.672 7.264-7.088 2.432-2.432 4.656-4.816 7.104-7.28 338.576-338.576 567.568-293.6 567.568-293.6 14.016 1.872 43.472 10.272 53.44 20.272 0 0 52.096 42.816 84.016 95.568 31.936 52.736-28.416 132.304-63.136 167.008-70.048 70.048-134.464 83.712-162.832 64.24-12.752-8.752-63.424-63.36-63.424-63.36-9.984-10-29.744-18.304-43.872-18.48 0 0-88.544-0.896-253.248 161.248C266.32 382.16 267.2 470.704 267.2 470.704c0.192 14.112 8.48 33.888 18.48 43.872 0 0 62.816 62.768 63.36 63.424 23.824 29.824-15.632 103.968-64.24 162.832-31.248 37.84-56.56 59.984-103.904 69.008C117.712 821.872 4.24 737.712 1.984 666.512z"  horiz-adv-x="1025" />

    
    <glyph glyph-name="yusuandan" unicode="&#59034;" d="M928.463622-81.921409 93.531721-81.921409c-17.59268 0-31.893384-14.273075-31.893384-31.871895 0-17.593703 14.300704-31.873941 31.893384-31.873941l834.9319 0c17.591657 0 31.849382 14.280238 31.849382 31.873941C960.313004-96.194484 946.056302-81.921409 928.463622-81.921409zM687.974385 151.864148c-10.55745 0-19.119453-8.568143-19.119453-19.126616l0-145.103796c0-10.574846 8.56098-19.144012 19.119453-19.144012l125.976156 0c10.559497 0 19.126616 8.569166 19.126616 19.144012L833.077158 132.737532c0 10.558473-8.567119 19.126616-19.126616 19.126616L687.974385 151.864148zM445.689247 420.881115c-10.558473 0-19.122523-8.54563-19.122523-19.138896l0-414.108482c0-10.574846 8.56405-19.144012 19.122523-19.144012l125.979226 0c10.558473 0 19.11229 8.569166 19.11229 19.144012L590.780763 401.742219c0 10.593266-8.552793 19.138896-19.11229 19.138896L445.689247 420.881115 445.689247 420.881115zM203.429691-31.510276l125.950574 0c10.573823 0 19.137873 8.569166 19.137873 19.144012l0 290.199405c0 10.559497-8.55177 19.125593-19.137873 19.125593L203.429691 296.958734c-10.558473 0-19.165502-8.566096-19.165502-19.125593l0-290.199405C184.263166-22.94111 192.871217-31.510276 203.429691-31.510276zM284.366048 519.585137l198.517309 160.627351 261.34831-300.639175-36.208667-30.220279c-5.53097-4.607948-8.009418-11.94096-6.41306-18.942421 1.604544-7.000438 7.011694-12.518105 13.973246-14.293541l127.062907-32.042787c1.550309-0.391926 3.114944-0.576121 4.672416-0.576121 4.438079 0 8.789177 1.526773 12.274558 4.425799 4.713348 3.918239 7.246031 9.854439 6.814196 15.960507l-8.782014 130.768299c-0.488117 7.16212-4.964058 13.458523-11.574616 16.291035-6.561439 2.827395-14.232143 1.701758-19.763113-2.90619l-42.904159-35.771715L505.244644 732.240445c-9.024537 10.370185-24.626887 11.717879-35.287691 3.116991L252.255723 559.244392c-10.940167-8.856715-12.660344-24.925692-3.768837-35.864836C257.323135 512.440413 273.397229 510.733539 284.366048 519.585137L284.366048 519.585137z"  horiz-adv-x="1024" />

    
    <glyph glyph-name="dianhua1" unicode="&#58883;" d="M744.426607-63.264627 744.408187-63.264627l-4.619204 0.103354c-107.472733 5.497201-252.610298 106.652042-388.285351 270.595928l-50.115398 60.531632C165.713182 431.922453 94.631264 592.051453 111.25385 696.319192c11.732206 73.561389 121.098056 135.641283 183.590342 135.641283 30.780027 0 41.930995-15.31787 45.829791-24.464181 35.375695-62.86784 79.147618-172.198897 79.349209-211.411991l0.013303-2.790556-1.000793-2.605338c-7.801686-20.612457-25.25929-30.487362-40.661072-39.197744-20.290115-11.466146-31.82073-18.99461-33.228799-40.670282-0.418532-6.577812 5.254677-36.501332 94.765317-146.84137l38.268582-46.209438c89.75828-105.928564 117.998461-117.331265 124.610042-118.27373 21.644973-3.010567 31.837102 6.479575 47.40466 23.544229 11.850909 12.993942 25.295106 27.740808 47.478338 30.988782l2.808976 0.400113 2.761903-0.586354c39.08825-8.242731 139.142014-72.724325 195.942671-120.596635 8.200776-5.442966 22.512736-21.601994 11.17962-57.299007C892.588041 19.884119 815.084876-63.264627 744.426607-63.264627L744.426607-63.264627z"  horiz-adv-x="1024" />

    
    <glyph glyph-name="dizhi" unicode="&#58889;" d="M839.946482 506.663458c0 179.917116-147.043874 325.820973-328.561518 325.820973-181.460336 0-328.561518-145.903857-328.561518-325.820973 0-59.446709 16.307166-114.955546 44.308214-162.939652l-0.351011 0 284.574638-407.316894 284.690277 407.316894-0.379665 0C823.757001 391.707912 839.946482 447.216749 839.946482 506.663458M511.413617 343.784184c-90.716353 0-164.280247 72.922251-164.280247 162.907928 0 89.927346 73.563895 162.907928 164.280247 162.907928 90.802315 0 164.280247-72.980582 164.280247-162.907928C675.693865 416.706435 602.215932 343.784184 511.413617 343.784184"  horiz-adv-x="1025" />

    
    <glyph glyph-name="gongju" unicode="&#58982;" d="M907.276906-128c-31.259732 0-60.63164 12.172166-82.705282 34.273629L651.498477 79.3481l-25.581685-25.575061-63.042757 63.044082 76.760952 76.760952-90.456625 90.415557-123.681021-123.675722c9.191389-33.873542 10.044554-69.355379 2.380647-103.581315-8.939679-39.919881-29.100326-76.454925-58.30531-105.655935-40.784969-40.81014-95.057619-63.286518-152.817116-63.286518-29.740199 0-58.623259 5.956253-85.849008 17.703162l-60.37728 25.944677 102.47909 102.47909 0.385514 28.396862-25.299505-0.339146-103.976102-103.974777-26.075831 60.174588c-35.541452 82.061435-17.693888 175.868453 45.464125 238.986722 40.811465 40.827362 95.092064 63.318313 152.834338 63.318313 19.28496 0 38.271843-2.511801 56.644024-7.481086l123.58961 123.590935-179.970001 179.939531-25.557839-25.58036-178.202732 178.177561 114.298862 114.137237 178.115295-178.115295-25.593608-25.572411L459.637166 499.636237l123.569738 123.567089c-9.258954 33.91991-10.153187 69.452088-2.498553 103.729691 8.925107 39.962275 29.1043 76.534413 58.355652 105.764568C679.837049 873.513023 734.112349 896 791.87582 896c29.854131 0 58.841849-5.990698 86.160333-17.805171l60.195784-26.08643-103.985376-103.961529-0.355044-25.312753 28.38229 0.385514 102.463192 102.463192 25.98707-60.38258c35.338759-81.917032 17.46205-175.604819-45.552886-238.658175-40.861807-40.820738-95.147705-63.294467-152.875406-63.294467-19.181627 0-38.087697 2.491929-56.410861 7.422795L612.219794 347.094677l90.4606-90.446027 76.709285 76.730482 63.048056-63.045406-25.594933-25.612155 173.111566-173.110241c45.58998-45.591305 45.597929-119.766268 0.015897-165.350949C967.878076-115.833133 938.510143-128 907.276906-128zM663.392437 142.393506l198.66278-198.66278c12.072806-12.088704 28.12793-18.740472 45.221689-18.740472 17.077861 0 33.138284 6.654418 45.221689 18.740472 12.043661 12.043661 18.674232 28.096135 18.671583 45.200492-0.00265 17.105682-6.639845 33.160805-18.686156 45.207116L753.796071 232.826286l-39.219068-39.230991 0.007949-0.009274L663.392437 142.393506zM163.640778-50.388533c17.069912-5.864843 34.876408-8.825747 53.116109-8.825747 43.597497 0 84.559987 16.962604 115.341471 47.76131 45.083911 45.079936 59.786424 110.316544 38.376502 170.259294l-5.640954 15.791491L537.305599 347.061557l-0.027821 0.027821 184.288814 184.307362 15.778243-5.615783c17.603803-6.264929 36.09124-9.441775 54.949618-9.441775 43.582924 0 84.569261 16.967904 115.409035 47.775883 44.579166 44.609636 59.226038 109.562739 38.897144 168.492025l-62.08096-62.082284-104.376188-1.414875 1.414875 101.297378 63.717075 63.701177c-17.136152 5.908561-35.049955 8.899936-53.400939 8.899936-43.597497 0-84.558663-16.967904-115.338821-47.778532-45.173996-45.142201-59.844715-110.450348-38.302313-170.455363l5.676723-15.810038L459.639816 424.698195l-0.007949 0.007949-172.374983-172.376307-15.800764 5.658176c-17.614401 6.305998-36.157479 9.50404-55.113892 9.50404-43.582924 0-84.554688-16.974528-115.365317-47.798404-44.71032-44.682499-59.335996-109.729663-38.862699-168.753008l63.738271 63.738271 101.266908 1.35526-1.41355-104.358966L163.640778-50.388533zM87.815128 769.103715l103.211699-103.197126 25.557839 25.58036 0.013248-0.013248 13.703622 13.693024-103.185203 103.185203L87.815128 769.103715zM945.660032-49.430711"  horiz-adv-x="1025" />

    
    <glyph glyph-name="sousuoyinqingchuanbo" unicode="&#58923;" d="M512-128C229.239467-128 0 101.1712 0 384 0 666.8288 229.239467 896 512 896 794.760533 896 1024 666.8288 1024 384 1024 101.1712 794.760533-128 512-128L512-128ZM512 832.034133C264.6016 832.034133 64.034133 631.466667 64.034133 384 64.034133 136.533333 264.6016-64.034133 512-64.034133 759.466667-64.034133 960.034133 136.533333 960.034133 384 960.034133 631.466667 759.466667 832.034133 512 832.034133L512 832.034133ZM768 384C768 525.380267 653.380267 640 512 640 370.619733 640 256 525.380267 256 384L192.034133 384C192.034133 560.7424 335.2576 703.965867 512 703.965867 688.7424 703.965867 832.034133 560.7424 832.034133 384L768 384 768 384ZM479.982933 256C480.324267 256 480.529067 255.863467 480.802133 255.863467L569.480533 464.827733C576.3072 480.938667 596.855467 490.222933 615.424 485.512533 633.992533 480.802133 643.4816 464.008533 636.654933 447.829333L544.290133 230.263467C563.541333 212.718933 576.034133 188.074667 576.034133 160.017067 576.034133 106.973867 533.026133 64.034133 479.982933 64.034133 427.008 64.034133 384 106.973867 384 160.017067 384 212.992 427.008 256 479.982933 256L479.982933 256ZM479.982933 127.931733C497.664 127.931733 512 142.267733 512 159.9488 512 177.629867 497.664 191.8976 479.982933 191.8976 462.301867 191.8976 448.034133 177.629867 448.034133 159.9488 448.034133 142.267733 462.301867 127.931733 479.982933 127.931733L479.982933 127.931733Z"  horiz-adv-x="1024" />

    
    <glyph glyph-name="shuzi1" unicode="&#58956;" d="M1043.194697 476.326809l-55.13362 47.015527 0 258.526677c0 63.821773-48.53569 114.129667-110.123404 114.129667l-767.669114 0c-61.608828 0-110.268559-50.307894-110.268559-114.129667l0-795.681284c0-63.821773 48.659731-114.187729 110.268559-114.187729l767.669114 0c61.587714 0 110.123404 50.365956 110.123404 114.187729L988.061077 261.46655l55.13362 43.665098 110.123404 87.273455L1043.194697 476.326809zM487.503867 130.299708l-73.650049 0 78.866373 447.381856-81.835441 0 10.474873 60.017407 155.71114 0L487.503867 130.299708z"  horiz-adv-x="1154" />

    
    <glyph glyph-name="shuzi4" unicode="&#58959;" d="M1044.535759 476.319746l-55.185724 47.009474 0 258.532286c0 63.774222-48.599006 114.138495-110.288205 114.138495l-768.670563 0c-61.689199 0-110.391267-50.364273-110.391267-114.138495l0-795.746794c0-63.763651 48.702068-114.127924 110.391267-114.127924l768.670563 0c61.689199 0 110.288205 50.364273 110.288205 114.127924L989.350035 261.452705l55.185724 43.613714 110.288205 87.330489L1044.535759 476.319746zM631.524144 130.229706l-73.972072 0 27.995861 158.3098-317.527338 0 61.689199 349.093372 79.443606 0-49.632269-280.95355 238.103552 0 49.611128 280.95355 73.972072 0L631.524144 130.229706z"  horiz-adv-x="1155" />

    
    <glyph glyph-name="shuzi5" unicode="&#58960;" d="M1043.182598 476.331676l-55.13298 43.60785 0 261.872749c0 60.470643-48.535127 114.187724-110.14324 114.187724l-767.660211 0c-61.587 0-110.246167-53.717081-110.246167-114.187724l0-795.670736c0-63.821033 48.659167-114.129663 110.246167-114.129663l767.660211 0c61.608113 0 110.14324 50.30863 110.14324 114.129663L988.049618 258.066777l55.13298 47.013662 110.122127 83.922053L1043.182598 476.331676zM737.20716 577.686576l-344.38682 0-28.432788-160.97442 344.407933 0L658.321908 130.250528l-418.261662 0 10.680605 60.016711 347.109094 0L627.187959 356.692806l-347.128888 0 49.567031 281.010482L747.887764 637.703287 737.20716 577.686576z"  horiz-adv-x="1154" />

    
    <glyph glyph-name="shuzi6" unicode="&#58961;" d="M597.868419 190.32662 628.775402 364.870185 355.315504 364.870185 324.614374 190.32662ZM1043.182598 476.331676l-55.13298 43.60785 0 261.874069c0 63.821033-48.535127 114.186405-110.14324 114.186405l-767.639097 0c-61.608113 0-110.26728-50.364052-110.26728-114.186405l0-795.672056c0-63.762972 48.659167-114.128344 110.26728-114.128344l767.639097 0c61.608113 0 110.14324 50.365372 110.14324 114.128344L988.049618 258.066777l55.13298 47.013662 110.122127 83.922053L1043.182598 476.331676zM737.20716 577.743318l-344.38682 0-26.824232-152.797041L710.382928 424.946276 658.321908 130.309908 240.058927 130.309908l89.565856 507.393379L747.887764 637.703287 737.20716 577.743318z"  horiz-adv-x="1154" />

    
    <glyph glyph-name="shuzi7" unicode="&#58962;" d="M1043.190664 479.66829l-55.133407 43.721672 0 258.468936c0 63.821527-48.535502 114.130546-110.144092 114.130546l-767.666146 0c-61.587476 0-110.247019-50.309019-110.247019-114.130546l0-795.621466c0-60.527853 48.659543-114.24403 110.247019-114.24403l767.666146 0c61.60859 0 110.144092 53.716177 110.144092 114.24403L988.057257 261.515188l55.133407 43.608188 110.122979 87.329859L1043.190664 479.66829zM554.204154 383.990763C501.255973 300.353091 446.245287 215.748166 389.173417 130.293431l-76.37074 0 289.153149 447.380127-333.256179 0 10.453719 60.017175L719.254684 637.690734C662.182813 552.177937 607.172128 467.573013 554.204154 383.990763z"  horiz-adv-x="1154" />

    
    <glyph glyph-name="shuzi8" unicode="&#58963;" d="M601.50499 187.592577 631.278845 356.687175 349.85567 356.687175 319.856165 187.592577ZM1043.196041 476.38301l-55.133691 43.608412 0 261.877443c0 60.416-48.535753 114.131134-110.14466 114.131134L110.247588 896c-61.587794 0-110.247588-53.715134-110.247588-114.131134l0-795.739052c0-63.708371 48.659794-114.131134 110.247588-114.131134l767.670103 0c61.608907 0 110.14466 50.422763 110.14466 114.131134L988.062351 258.115299 1043.196041 305.129567l110.123546 83.923134L1043.196041 476.38301zM662.411876 130.243299l-426.453773 0 89.56701 507.457979 426.453773 0L662.411876 130.243299zM670.371629 577.682474 388.721485 577.682474 360.763381 419.432247 642.412206 419.432247Z"  horiz-adv-x="1154" />

    
    <glyph glyph-name="time" unicode="&#58989;" d="M511.999 804.603c-231.915 0-420.603-188.685-420.603-420.603s188.687-420.603 420.603-420.603c231.92 0 420.605 188.685 420.605 420.603s-188.685 420.603-420.605 420.603zM511.999 15.973c-202.933 0-368.028 165.094-368.028 368.028 0 202.936 165.094 368.030 368.028 368.030 202.933 0 368.028-165.094 368.028-368.030 0-202.934-165.095-368.028-368.028-368.028zM696.013 410.289h-157.726v210.304c0 14.527-11.756 26.288-26.288 26.288-14.527 0-26.286-11.761-26.286-26.288v-236.591c0-14.529 11.759-26.288 26.286-26.288h184.014c14.529 0 26.291 11.759 26.291 26.288-0.001 14.531-11.762 26.288-26.291 26.288z"  horiz-adv-x="1024" />

    
    <glyph glyph-name="liaotian" unicode="&#58925;" d="M695.727614 46.784458C692.736041 46.801916 689.888485 46.306592 687.399871 45.284308L687.314772 45.284308C685.329118 44.457317 683.427474 43.136094 681.774581 41.320638L559.4616-93.011001C558.106554-94.486057 556.682776-95.926202 555.251359-97.213603 543.898223-107.356801 529.134561-112.505318 514.525825-112.521682 499.848355-112.539138 485.068329-107.441901 473.697735-97.111049L473.536264-96.940849C472.380876-95.867287 471.064016-94.51988 469.556228-92.849531L351.184007 39.317528C349.782049 40.868958 347.991687 42.027618 345.984214 42.778238 343.086468 43.886714 339.762135 44.457317 336.326519 44.61115L336.245784 44.61115C304.141475 46.15385 281.127535 46.256405 256.503248 46.332778L256.422513 46.332778C224.944451 46.44406 190.795576 46.596804 135.699147 49.444361L135.699147 49.41054C105.683049 49.41054 78.331218 61.769595 58.509596 81.561761L58.458318 81.519211C38.658516 101.319013 26.349647 128.680664 26.349647 158.751313L26.349647 758.857249C26.349647 788.855891 38.670517 816.212086 58.458318 836.012978L58.509596 836.0468 58.543417 836.093714C78.347583 855.881514 105.700505 868.198021 135.699147 868.198021L898.768319 868.198021C928.856423 868.198021 956.200618 855.898971 976.009148 836.093714L975.95787 836.0468C995.757673 816.225178 1008.109091 788.877711 1008.109091 758.857249L1008.109091 158.750221C1008.109091 128.678481 995.817677 101.317922 976.009148 81.518119 956.200618 61.718319 928.856423 49.409449 898.768319 49.409449L898.768319 49.478183C849.927789 48.523543 808.008682 47.850383 774.801354 47.407431 734.109642 46.860831 706.766539 46.681903 695.727614 46.784458L695.727614 46.784458 695.727614 46.784458ZM767.897391 495.772347C744.815806 495.772347 726.114659 477.071201 726.114659 453.99398 726.114659 430.921124 744.815806 412.215614 767.897391 412.215614 790.978976 412.215614 809.68012 430.921124 809.68012 453.99398 809.68012 477.072292 790.978976 495.772347 767.897391 495.772347L767.897391 495.772347 767.897391 495.772347ZM517.235915 495.772347C494.158693 495.772347 475.457547 477.071201 475.457547 453.99398 475.457547 430.921124 494.158693 412.215614 517.235915 412.215614 540.308772 412.215614 559.009918 430.921124 559.009918 453.99398 559.009918 477.072292 540.308772 495.772347 517.235915 495.772347L517.235915 495.772347 517.235915 495.772347ZM266.570077 495.772347C243.497219 495.772347 224.796073 477.071201 224.796073 453.99398 224.796073 430.921124 243.497219 412.215614 266.570077 412.215614 289.647296 412.215614 308.348442 430.921124 308.348442 453.99398 308.348442 477.072292 289.647296 495.772347 266.570077 495.772347L266.570077 495.772347 266.570077 495.772347ZM671.427362 83.767799 671.409906 83.81035C679.029579 86.964483 687.399871 88.455907 696.060375 88.387172 706.809089 88.310801 733.854343 88.480999 774.307123 89.009052 807.003853 89.443278 848.837863 90.133892 898.359187 91.10599L898.768319 91.182361C917.32436 91.182361 934.208961 98.802034 946.466552 111.050896 958.723052 123.307398 966.335087 140.201816 966.335087 158.74913L966.335087 758.857249C966.335087 777.460204 958.757964 794.370989 946.551651 806.555482L946.466552 806.555482C934.210052 818.807618 917.32436 826.424018 898.768319 826.424018L135.699147 826.424018C117.096192 826.424018 100.189771 818.842531 87.99655 806.636217L87.915815 806.555482C75.713865 794.370989 68.132378 777.460204 68.132378 758.857249L68.132378 158.750221C68.132378 140.202908 75.747686 123.309579 87.99655 111.060715L87.99655 110.966889C100.189771 98.769303 117.096192 91.192181 135.699147 91.192181L136.75198 91.10708C192.691766 88.19188 225.91764 88.046775 256.508704 87.952946L256.593805 87.952946C282.250192 87.850391 306.243869 87.747835 338.219435 86.213863 346.048584 85.838554 353.732625 84.508602 360.819882 81.798512 368.827956 78.738205 376.162873 73.999913 382.363132 67.04467L382.316217 67.00212 500.577156-65.113661 501.762-66.255957C505.180162-69.358812 509.850811-70.910242 514.525825-70.910242 519.277211-70.910242 524.029686-69.291169 527.515491-66.188314L528.734158-64.986012 528.682879-64.952189 650.919489 69.379449C656.774985 75.790273 663.705134 80.554751 671.427362 83.767799L671.427362 83.767799Z"  horiz-adv-x="1024" />

    
    <glyph glyph-name="shuzi2" unicode="&#58986;" d="M1043.196041 476.327588l-55.133691 43.665155 0 261.876124c0 60.41732-48.535753 114.131134-110.123546 114.131134l-767.670103 0c-61.608907 0-110.268701-53.713814-110.268701-114.131134l0-795.737732c0-63.708371 48.659794-114.131134 110.268701-114.131134l767.670103 0c61.587794 0 110.123546 50.422763 110.123546 114.131134L988.062351 258.116619l55.133691 47.015588 110.123546 83.923134L1043.196041 476.327588zM696.515299 354.021608l-336.205856 0L331.897402 193.043794 668.103258 193.043794l-11.13468-62.742433-415.319093 0 50.474227 286.461361L631.051876 416.762722l27.959423 158.251546-333.484866 0 11.154474 62.743753L746.536907 637.758021 696.515299 354.021608z"  horiz-adv-x="1154" />

    
    <glyph glyph-name="shuzi3" unicode="&#58987;" d="M1043.196041 476.388289l-55.133691 43.608412 0 261.876124c0 60.416-48.535753 114.131134-110.123546 114.131134l-767.670103 0c-61.608907 0-110.268701-53.715134-110.268701-114.131134l0-795.737732c0-63.821856 48.659794-114.131134 110.268701-114.131134l767.670103 0c61.587794 0 110.123546 50.309278 110.123546 114.131134L988.062351 258.119258l55.133691 47.014268 110.123546 83.923134L1043.196041 476.388289zM656.969897 130.304l-415.546062 0 11.13468 62.743753 341.670268 0L623.093443 356.692454l-287.093443 0 11.13468 62.743753L634.247918 419.436206l27.278515 155.525278L319.856165 574.961485l11.13468 62.743753L746.536907 637.705237 656.969897 130.304z"  horiz-adv-x="1154" />

    
    <glyph glyph-name="kucunguanli" unicode="&#59057;" d="M1094.2464 588.731733 548.113067 896l-546.133333-311.227733 546.133333-303.172267L1094.2464 588.731733zM141.243733 585.591467l407.074133 231.970133 406.664533-228.829867L547.908267 359.8336 141.243733 585.591467zM548.113067 155.0336 71.4752 419.566933 1.979733 379.972267 548.113067 76.8 1094.2464 383.931733 1024.8192 422.980267ZM548.113067-49.7664 71.4752 214.766933 1.979733 175.172267 548.113067-128 1094.2464 179.131733 1024.8192 218.180267Z"  horiz-adv-x="1095" />

    
    <glyph glyph-name="suzaoqiyexingxiang" unicode="&#58904;" d="M1000.046933-127.93344c-0.003413 0-0.01024 0-0.01536 0L23.953067-127.93344c-9.122133 0-16.515413 7.394987-16.515413 16.515413 0 9.120427 7.394987 16.515413 16.515413 16.515413l976.093867 0c9.122133 0 16.515413-7.394987 16.515413-16.515413C1016.562347-120.538453 1009.169067-127.93344 1000.046933-127.93344zM303.537493 619.552427c-0.00512 0-0.01024-0.001707-0.017067 0l-96.703147 0c-9.122133 0-16.515413 7.394987-16.515413 16.515413s7.394987 16.515413 16.515413 16.515413l96.720213 0c9.120427 0 16.515413-7.394987 16.515413-16.515413S312.659627 619.552427 303.537493 619.552427zM513.189547 619.552427c-0.003413 0-0.01024 0-0.01536 0l-96.704853 0c-9.122133 0-16.515413 7.394987-16.515413 16.515413s7.394987 16.515413 16.515413 16.515413l96.720213 0c9.122133 0 16.515413-7.394987 16.515413-16.515413S522.31168 619.552427 513.189547 619.552427zM795.904 345.547093c-9.120427 0-16.515413 7.394987-16.515413 16.515413l0 96.7168c0 9.122133 7.394987 16.515413 16.515413 16.515413s16.515413-7.394987 16.515413-16.515413l0-96.7168C812.419413 352.94208 805.024427 345.547093 795.904 345.547093zM795.904 83.700053c-9.120427 0-16.515413 7.394987-16.515413 16.515413l0 96.708267c0 9.120427 7.394987 16.515413 16.515413 16.515413s16.515413-7.394987 16.515413-16.515413l0-96.708267C812.419413 91.09504 805.024427 83.700053 795.904 83.700053zM303.537493 386.9184c-0.00512 0-0.01024 0-0.017067 0l-96.703147 0c-9.122133 0-16.515413 7.394987-16.515413 16.515413s7.394987 16.515413 16.515413 16.515413l96.720213 0c9.120427 0 16.515413-7.394987 16.515413-16.515413S312.659627 386.9184 303.537493 386.9184zM513.189547 386.9184c-0.003413 0-0.01024 0-0.01536 0l-96.704853 0c-9.122133 0-16.515413 7.394987-16.515413 16.515413s7.394987 16.515413 16.515413 16.515413l96.720213 0c9.122133 0 16.515413-7.394987 16.515413-16.515413S522.31168 386.9184 513.189547 386.9184zM303.537493 154.29632c-0.00512-0.001707-0.01024-0.001707-0.017067 0l-96.703147 0c-9.122133 0-16.515413 7.394987-16.515413 16.515413 0 9.120427 7.394987 16.515413 16.515413 16.515413l96.720213 0c9.120427 0 16.515413-7.394987 16.515413-16.515413C320.054613 161.691307 312.659627 154.29632 303.537493 154.29632zM513.189547 154.29632c-0.003413 0-0.01024 0-0.01536 0l-96.704853 0c-9.122133 0-16.515413 7.394987-16.515413 16.515413 0 9.120427 7.394987 16.515413 16.515413 16.515413l96.720213 0c9.122133 0 16.515413-7.394987 16.515413-16.515413C529.70496 161.691307 522.31168 154.29632 513.189547 154.29632zM659.10784-128c-9.120427 0-16.515413 7.394987-16.515413 16.515413L642.592427 801.496747c0 33.896107-27.593387 61.472427-61.509973 61.472427L137.125547 862.969173c-33.902933 0-61.484373-27.57632-61.484373-61.472427l0-912.749227c0-9.120427-7.394987-16.515413-16.515413-16.515413s-16.515413 7.394987-16.515413 16.515413L42.610347 801.496747C42.610347 853.6064 85.009067 896 137.125547 896l443.956907 0c52.130133 0 94.542507-42.3936 94.542507-94.503253l0-912.979627C675.62496-120.605013 668.228267-128 659.10784-128zM955.16672-127.7696c-9.120427 0-16.515413 7.394987-16.515413 16.515413L938.651307 558.091947c0 33.88928-27.569493 61.46048-61.458773 61.46048L658.459307 619.552427c-9.120427 0-16.515413 7.394987-16.515413 16.515413s7.394987 16.515413 16.515413 16.515413L877.192533 652.583253c52.10112 0 94.4896-42.390187 94.4896-94.493013l0-669.344427C971.682133-120.374613 964.287147-127.7696 955.16672-127.7696z"  horiz-adv-x="1024" />

    
    <glyph glyph-name="kefu" unicode="&#58885;" d="M968.829611 224.904533C961.832277 198.690133 944.731477 177.8688 922.852011 165.410133 906.092544 151.9616 884.895744 143.906133 861.821611 143.906133 860.626944 143.906133 859.466411 144.042667 858.305877 144.2816 821.578411-17.783467 687.502677-128 512.740011-128 337.636011-128 203.594411-18.056533 166.662144 143.906133 148.161877 144.042667 130.856277 149.333333 116.144811 158.446933 87.165611 168.925867 63.545344 192.9216 55.012011 224.904533 43.474944 267.9808 59.244544 298.666667 79.383211 319.010133 78.973611 330.5472 78.905344 342.357333 79.144277 354.952533 76.481877 488.174933 116.144811 600.610133 193.866411 680.1408 230.901077 718.062933 275.922944 747.144533 327.566677 766.976 335.588011 839.168 413.753344 896 508.678144 896 603.637077 896 681.802411 839.168 689.823744 766.976 741.433344 747.144533 786.489344 718.062933 823.524011 680.1408 901.211477 600.610133 940.840277 487.970133 938.212011 354.338133 938.416811 344.439467 938.382677 334.609067 938.143744 324.9152 961.081344 304.8448 981.527211 272.384 968.829611 224.904533ZM508.678144 863.095467C437.953877 863.095467 378.596011 827.0848 363.440811 778.9568 407.575211 791.586133 455.805611 798.037333 507.415211 798.037333L509.941077 798.037333C561.550677 798.037333 609.815211 791.586133 653.949611 778.9568 638.794411 827.0848 579.402411 863.095467 508.678144 863.095467ZM886.192811 354.338133C888.616277 474.487467 854.107477 574.293333 786.352811 643.618133 721.021611 710.519467 625.414144 745.8816 509.941077 745.8816L510.248277 726.562133 508.917077 726.562133 508.609877 745.847467 507.415211 745.8816C391.942144 745.8816 296.368811 710.485333 231.003477 643.618133 163.282944 574.2592 128.740011 474.487467 131.163477 354.986667 131.163477 353.655467 131.129344 352.324267 131.129344 351.0272 155.705344 357.546667 173.966677 338.773333 176.629077 336.930133 268.720811 367.581867 308.861611 465.476267 309.305344 466.500267 312.684544 474.897067 322.173611 479.0272 330.604544 475.648 339.001344 472.2688 343.097344 462.7456 339.752277 454.314667 337.874944 449.570133 294.866944 343.927467 191.238144 307.165867 189.906944 285.696 188.678144 263.2704 188.917077 255.317333L189.258411 236.714667C189.258411 41.233067 322.037077-95.095467 512.091477-95.095467 512.364544-95.095467 513.081344-95.095467 513.354411-95.095467 661.493077-95.095467 774.952277-11.741867 817.414144 117.896533 812.123477 111.684267 806.662144 105.608533 800.961877 99.771733 765.326677 63.146667 722.796544 34.645333 674.532011 15.086933 640.705877 1.399467 604.661077-7.645867 566.841344-12.014933 562.642944-28.7744 541.002411-41.608533 514.719744-41.608533 485.399211-41.608533 461.608277-25.736533 461.608277-6.109867 461.608277 13.482667 485.399211 29.422933 514.719744 29.422933 535.404544 29.422933 553.188011 21.435733 561.926144 9.864533 679.140011 22.766933 773.791744 82.670933 830.828544 174.045867 833.934677 194.048 835.573077 214.869333 835.573077 236.407467 835.573077 236.407467 835.573077 236.407467 835.641344 239.3088 835.095211 239.854933 834.583211 240.401067 834.139477 241.015467 789.766144 298.769067 724.639744 312.593067 655.724544 327.236267 621.352277 334.5408 585.819477 342.084267 551.140011 355.293867 425.426944 403.114667 358.696277 513.467733 355.931477 518.109867 351.289344 525.9264 353.815211 535.995733 361.597611 540.672 369.380011 545.314133 379.415211 542.788267 384.057344 535.005867 384.705877 533.947733 448.023211 429.704533 562.779477 386.048 595.069611 373.76 629.373611 366.4896 662.517077 359.424 725.868544 345.975467 791.131477 332.117333 841.136811 282.624 841.648811 283.170133 842.194944 283.716267 842.775211 284.194133 843.730944 300.066133 844.686677 312.7296 845.540011 317.5424 845.642411 318.190933 845.778944 318.805333 845.915477 319.453867 845.608277 320.7168 851.547477 351.573333 886.226944 351.573333 886.226944 352.494933 886.192811 353.416533 886.192811 354.338133ZM430.444544 264.362667 385.832277 242.039467 430.444544 219.613867C421.569877 196.7104 399.588011 180.360533 373.578411 180.360533 339.581611 180.360533 312.104277 207.9744 312.104277 242.039467 312.104277 276.036267 339.581611 303.616 373.578411 303.616 399.588011 303.616 421.569877 287.368533 430.444544 264.362667ZM660.127744 303.377067C686.069077 303.377067 708.153344 287.095467 717.028011 264.157867L672.313344 241.7664 717.028011 219.409067C708.153344 196.437333 686.069077 180.1216 660.127744 180.1216 626.130944 180.1216 598.653611 207.701333 598.653611 241.7664 598.653611 275.797333 626.130944 303.377067 660.127744 303.377067Z"  horiz-adv-x="1024" />

    
    <glyph glyph-name="dianhua" unicode="&#58957;" d="M512 896C229.248 896 0 666.794667 0 384s229.248-512 512-512c282.752 0 512 229.205333 512 512S794.752 896 512 896zM705.834667 81.749333c-40.021333-40.490667-190.165333-2.773333-338.858667 145.109333-148.736 148.010667-187.52 298.112-147.370667 338.645333 34.730667 35.072 77.013333 96.341333 141.056 16.981333 64.042667-79.189333 32.853333-101.632-3.029333-137.770667-25.002667-25.301333 27.648-88.832 82.773333-143.658667 55.125333-54.741333 118.912-107.221333 143.914667-81.877333 35.84 36.181333 57.898667 67.712 137.514667 4.138667C801.365333 159.616 740.565333 116.821333 705.834667 81.749333zM492.032 553.557333c11.648 11.648 28.245333 9.088 28.245333 9.088 41.6-6.528 84.949333-26.709333 119.552-61.354667s54.656-78.122667 61.269333-119.765333c0 0 2.602667-16.725333-9.088-28.373333-11.946667-11.989333-32.682667-12.501333-45.269333 0.170667-7.424 7.424-9.088 17.962667-9.088 17.962667-3.84 20.565333-10.325333 51.541333-43.178667 84.522667-32.896 32.938667-63.829333 39.509333-84.352 43.392 0 0-10.581333 1.493333-18.048 9.045333C479.530667 520.874667 480.042667 541.525333 492.032 553.557333zM817.322667 344.405333c0 0-1.664-12.629333-9.429333-20.437333-12.074667-12.074667-32.554667-12.842667-45.397333 0.085333-11.52 11.562667-8.576 29.141333-8.576 29.141333 8.32 55.594667-17.322667 124.16-77.610667 184.576-60.373333 60.416-128.768 86.229333-184.149333 77.781333 0 0-17.493333-2.901333-28.970667 8.576-12.928 12.928-12.16 33.450667-0.085333 45.568 7.722667 7.722667 20.394667 9.429333 20.394667 9.429333 47.872 6.912 144.256-1.792 238.208-95.914667C815.573333 489.088 824.234667 392.448 817.322667 344.405333z"  horiz-adv-x="1024" />

    
    <glyph glyph-name="diannao" unicode="&#58884;" d="M626.311 51.44c-15.54 11.426-17.192 28.587-17.192 28.587l-5.823 37.253H417.584l-5.843-37.233s-1.63-17.182-17.161-28.607c-15.53-11.425-27.788-21.232-15.53-22.896 11.809-1.587 123.176-0.13 131.396 0 8.23-0.13 119.576-1.587 131.384 0 12.248 1.654-0.01 11.448-15.519 22.897zM266.138 444.561h71.718v-134.488h-71.718V444.561zM418.548 507.32h71.728v-197.247h-71.728V507.321zM562.005 444.561h71.729v-134.488h-71.73V444.561zM696.487 507.32h71.728v-197.247h-71.728V507.321zM462.457 582.99l144.988-92.874 200.41 145.012-21.035 29.045L606.22 533.49l-141.925 90.92L213.016 495.2l16.59-31.794zM922.845 744.86H98.025c-19.81 0-35.864-16.055-35.864-35.859v-519.992c0-19.81 16.054-35.875 35.864-35.875h824.82c19.81 0 35.864 16.066 35.864 35.875V709.001c0.001 19.803-16.055 35.859-35.864 35.859zM904.93 260.726H115.962V691.07H904.93v-430.343z"  horiz-adv-x="1024" />

    
    <glyph glyph-name="shu" unicode="&#58898;" d="M607.911 175.607c-50.001-28.887-69.914-89.712-49.068-141.805l-26.457-15.292V247.146l42.907 24.773c34.68-44.106 97.329-57.277 147.344-28.419 54.862 31.67 151.26 219.788 151.26 219.788s-211.125 10.599-265.985-21.084c-50.001-28.861-69.914-89.687-49.068-141.793l-26.457-15.263V466.664c66.479 9.866 117.526 67.017 117.526 136.252C649.912 679.076 512 892.519 512 892.519S374.096 679.076 374.096 602.916c0-69.235 51.06-126.386 117.526-136.252v-181.517l-26.458 15.263c20.84 52.106 0.927 112.933-49.081 141.793-54.862 31.683-265.979 21.084-265.979 21.084S246.507 275.17 301.371 243.5c50.027-28.858 112.648-15.688 147.358 28.419l42.893-24.773v-228.635l-26.458 15.292c20.84 52.093 0.927 112.918-49.081 141.805-54.862 31.671-265.979 21.058-265.979 21.058s96.403-188.076 151.268-219.745c50.006-28.888 112.648-15.73 147.337 28.377l42.914-24.788V-128h40.764V-19.491l42.935 24.788c34.68-44.107 97.302-57.265 147.316-28.377 54.862 31.669 151.26 219.745 151.26 219.745s-211.127 10.613-265.987-21.058z m-20.154 188.032c5.568 20.691 18.852 38.003 37.38 48.715 5.271 3.025 38.257 18.174 170.79 18.174 6.996 0 14.049-0.042 21.114-0.127-45.831-81.627-90.632-144.898-111.631-157.025-12.226-7.053-26.076-10.77-40.037-10.77-28.634 0-55.286 15.376-69.589 40.137-10.712 18.569-13.566 40.18-8.027 60.896zM428.23 302.743c-14.31-24.761-40.971-40.137-69.597-40.137-13.97 0-27.812 3.731-40.021 10.77-21.023 12.127-65.802 75.397-111.633 157.025 7.051 0.085 14.104 0.127 21.1 0.127 132.576 0 165.505-15.149 170.783-18.203 18.557-10.684 31.834-27.995 37.375-48.687 5.56-20.715 2.705-42.326-8.007-60.895z m0-266.622c-14.31-24.761-40.971-40.138-69.597-40.138-13.991 0-27.812 3.732-40.021 10.783-21.009 12.112-65.802 75.383-111.626 157.012 7.25 0.085 14.33 0.112 21.205 0.112 132.485 0 165.414-15.105 170.671-18.145 38.307-22.132 51.487-71.297 29.368-109.624zM512 506.363c-53.225 0-96.524 43.331-96.524 96.553 0 33.706 46.758 126.923 96.524 210.871 49.78-83.933 96.545-177.138 96.545-210.871 0-53.222-43.301-96.553-96.545-96.553z m305.013-342.585c-45.817-81.629-90.604-144.899-111.619-157.025-12.209-7.037-26.03-10.77-40.008-10.77-28.618 0-55.299 15.377-69.602 40.138-22.131 38.327-8.96 87.492 29.368 109.625 5.256 3.039 38.171 18.145 170.662 18.145 6.869 0 13.963-0.028 21.199-0.113z"  horiz-adv-x="1024" />

    
    <glyph glyph-name="chuanzhen" unicode="&#58881;" d="M286.72 451.584l391.168 0c22.528 0 43.008 18.432 43.008 43.008L720.896 752.64c0 22.528-18.432 43.008-43.008 43.008L303.104 795.648c-30.72 0-55.296-24.576-55.296-55.296l0-249.856C247.808 467.968 264.192 451.584 286.72 451.584zM862.208 623.616l-32.768 0c-28.672 0-51.2-16.384-51.2-55.296l0-102.4c0-30.72-24.576-55.296-55.296-55.296L256 410.624c-30.72 0-55.296 24.576-55.296 55.296l0 102.4c0 32.768-14.336 55.296-51.2 55.296L114.688 623.616c-40.96 0-73.728-32.768-73.728-73.728l0-456.704c0-40.96 32.768-73.728 73.728-73.728l53.248 0c24.576 0 32.768 14.336 32.768 36.864l0 36.864c0 30.72 24.576 55.296 55.296 55.296l464.896 0c30.72 0 55.296-24.576 55.296-55.296l0-43.008c0-20.48 8.192-30.72 28.672-30.72l55.296 0c40.96 0 73.728 32.768 73.728 73.728L933.888 549.888C935.936 590.848 903.168 623.616 862.208 623.616zM286.72 451.584l391.168 0c22.528 0 43.008 18.432 43.008 43.008L720.896 752.64c0 22.528-18.432 43.008-43.008 43.008L303.104 795.648c-30.72 0-55.296-24.576-55.296-55.296l0-249.856C247.808 467.968 264.192 451.584 286.72 451.584zM280.576-48.128l405.504 0c20.48 0 36.864 16.384 36.864 36.864l0 77.824c0 16.384-14.336 30.72-30.72 30.72l-409.6 0c-18.432 0-34.816-14.336-34.816-34.816l0-77.824C247.808-31.744 262.144-48.128 280.576-48.128z"  horiz-adv-x="1024" />

    
    <glyph glyph-name="wenhao" unicode="&#59736;" d="M511.772672 836.18816c-251.664384 0-455.68-204.014592-455.68-455.68 0-251.665408 204.015616-455.68 455.68-455.68 251.665408 0 455.68 204.014592 455.68 455.68C967.452672 632.173568 763.43808 836.18816 511.772672 836.18816zM508.056576 109.391872c-18.097152 0-32.768 14.670848-32.768 32.768 0 18.097152 14.670848 32.768 32.768 32.768 18.097152 0 32.768-14.670848 32.768-32.768C540.824576 124.06272 526.153728 109.391872 508.056576 109.391872zM658.07872 438.013952c-10.41408-18.74432-30.779392-41.539584-61.09184-68.380672-20.366336-18.050048-33.670144-31.36-39.917568-39.918592-6.248448-8.562688-10.88-18.39616-13.88544-29.503488-3.01056-11.108352-4.74624-29.157376-5.206016-54.150144l-0.029696 0c0.002048-0.149504 0.011264-0.297984 0.011264-0.448512 0-16.610304-13.464576-30.07488-30.07488-30.07488-16.60928 0-30.07488 13.464576-30.07488 30.07488 0 0.677888-0.2304 15.296512-0.2304 19.191808 0 24.526848 3.47136 45.700096 10.413056 63.521792 5.087232 13.418496 13.304832 26.955776 24.645632 40.612864 8.33024 9.947136 23.31136 24.470528 44.951552 43.563008 21.635072 19.091456 35.692544 34.304 42.17344 45.6448 6.475776 11.336704 9.718784 23.718912 9.718784 37.141504 0 24.297472-9.490432 45.6448-28.463104 64.041984-18.976768 18.39616-42.233856 27.594752-69.769216 27.594752-26.61376 0-48.82944-8.33024-66.644992-24.99072-17.589248-16.444416-29.187072-42.0352-34.82624-76.736512-1.165312-16.822272-15.171584-30.109696-32.289792-30.109696-17.882112 0-32.377856 14.495744-32.377856 32.376832 0 1.355776 0.093184 2.688 0.254976 4.000768l-0.03584 0.004096c5.781504 47.435776 22.9632 83.767296 51.546112 108.993536 28.576768 25.219072 66.352128 37.834752 113.3312 37.834752 49.75104 0 89.43616-13.536256 119.06048-40.61184 29.618176-27.07456 44.429312-59.82208 44.429312-98.233344C673.698816 477.237248 668.491776 456.757248 658.07872 438.013952z"  horiz-adv-x="1024" />

    
    <glyph glyph-name="wujiaoxing" unicode="&#58951;" d="M512 870.951l168.724-306.058 343.276-65.93-238.946-255.134 43.441-346.742-316.495 148.401-316.416-148.48 43.362 346.782-238.946 255.173 343.237 65.969 168.763 306.018zM512 870.951z"  horiz-adv-x="1024" />

    
    <glyph glyph-name="cuowu" unicode="&#58914;" d="M512 896C229.233778 896 0 666.766222 0 384s229.233778-512 512-512 512 229.233778 512 512S794.766222 896 512 896z m218.012444-688.270222l-41.756444-41.756445L512 342.243556 335.729778 165.987556l-41.756445 41.756444L470.243556 384 293.987556 560.270222l41.756444 41.756445L512 425.756444 688.270222 602.026667l41.756445-41.756445L553.756444 384l176.256-176.270222z"  horiz-adv-x="1024" />

    
    <glyph glyph-name="kefu1" unicode="&#58900;" d="M274.858 209.91c77.058-57.374 154.115-75.382 239.129-75.382 85.433 0 177.567 33.922 235.36 82.501 73.288-39.786 138.201-129.825 139.457-216.933H133.725c10.47 103.441 82.502 177.985 141.133 209.813z m469.464 45.648c-61.563-56.536-144.064-90.878-234.941-90.878s-173.379 34.341-234.941 90.459C164.298 199.858 91.847 101.024 91.847-33.408h837.58c0 134.432-73.707 233.685-185.106 288.965zM237.167 377.844V591.008l-9.214-0.419c48.579 105.116 156.209 177.986 281.427 177.986 124.8 0 232.429-72.869 281.008-177.986l-8.795 0.419v-213.165c59.887 0 108.885 47.742 108.885 106.373 0 40.204-22.614 74.963-56.118 93.39-46.485 131.92-174.216 226.567-324.981 226.567s-278.496-94.646-325.4-226.566c-33.503-18.428-55.699-53.186-55.699-93.39 0-58.63 48.579-106.373 108.885-106.373z m271.795-103.441c-108.885 0-196.832 86.271-196.832 192.643s93.39 192.643 196.832 192.643c108.467 0 196.413-86.271 196.413-192.643s-87.946-192.643-196.413-192.643z m0.419 422.978c-130.244 0-235.778-103.441-235.778-230.753 0-127.731 105.535-231.173 235.778-231.173 129.825 0 235.36 103.441 235.36 231.173 0 127.313-105.535 230.753-235.36 230.753z"  horiz-adv-x="1024" />

    
    <glyph glyph-name="chanpin" unicode="&#59089;" d="M453.20192 409.8304L179.456 553.472l-0.6656 0.3328c-11.264 5.49888-22.33856 8.28928-32.9216 8.28928-27.43296 0-47.34976-19.69152-47.34976-46.82752v-387.16928c0-29.96224 24.67328-64.62976 57.44128-80.80896l273.75104-143.6416 0.66048-0.33792c11.264-5.48864 22.33856-8.27904 32.9216-8.27904 27.4432 0 47.35488 19.69152 47.36 46.8224v387.16928c0 29.95712-24.6784 64.63488-57.45152 80.80896z m6.23104-463.02208a34.11456 34.11456 0 0 0-6.29248 2.37056L179.456 92.78464l-0.65536 0.32256c-17.47968 8.54016-29.07648 26.71104-29.07648 34.97984l0.02048 382.21312c1.6384-0.41984 3.73248-1.14176 6.28224-2.36544l273.6896-143.616 0.66048-0.32256c17.47968-8.54528 29.07648-26.71616 29.07648-34.97984l-0.02048-382.208zM895.78496 618.4704c21.32992 10.83392 33.49504 27.80672 33.37728 46.5664-0.11264 18.54976-12.21632 35.10784-33.18272 45.42464L589.58848 861.24032c-15.34976 7.56224-35.2512 11.7248-56.01792 11.7248-21.91872 0-42.96192-4.5568-59.25888-12.83072L164.71552 702.9248c-21.33504-10.83392-33.50528-27.80672-33.38752-46.5664 0.11776-18.55488 12.22144-35.11808 33.19808-45.42976l306.37056-150.77376c15.35488-7.56224 35.24608-11.7248 56.01792-11.7248 21.9136 0 42.97728 4.5568 59.25376 12.83072l309.61664 157.2096z m-368.8704-118.84032c-12.89216 0-25.06752 2.3552-33.408 6.46144l-306.3808 150.784 0.76288 0.39424 309.60128 157.21472c9.1136 4.62848 22.272 7.28064 36.08064 7.28064 12.89216 0 25.06752-2.3552 33.408-6.46144L873.3696 664.5248c-0.24064-0.13312-0.50176-0.26624-0.75776-0.39936l-309.61152-157.2096c-9.11872-4.62848-22.272-7.28576-36.08576-7.28576zM949.66784 267.77088m-25.6 0a25.6 25.6 0 1 1 51.2 0 25.6 25.6 0 1 1-51.2 0ZM907.43808 70.64064m-25.6 0a25.6 25.6 0 1 1 51.2 0 25.6 25.6 0 1 1-51.2 0ZM620.65152-50.82112c-2.56-1.2288-4.66944-1.95072-6.30784-2.3808v382.21824c0 8.26368 11.60192 26.43456 29.0816 34.97984l274.35008 143.94368c2.56 1.2288 4.6592 1.95072 6.2976 2.37568v-186.22976h51.2v191.1808c0 27.13088-19.9168 46.82752-47.34976 46.82752-10.58304 0-21.6576-2.7904-32.9216-8.28928l-274.41664-143.97952c-32.77312-16.17408-57.4464-50.85184-57.4464-80.80896v-387.16928c0-27.13088 19.92192-46.8224 47.36-46.8224 10.58816 0 21.6576 2.7904 32.91648 8.28416l274.41664 143.9744-22.84032 45.82912-274.33984-143.93344zM924.06784 348.8h51.2v-81.02912h-51.2z"  horiz-adv-x="1024" />

    
    <glyph glyph-name="product" unicode="&#58891;" d="M250.261 550.904c-20.654 0-37.354 16.7-37.354 37.354 0 135.528 117.422 245.742 261.739 245.742 113.555 0 213.662-68.291 249.17-169.805 6.768-19.512-3.516-40.781-23.028-47.636-19.424-6.768-40.781 3.516-47.636 23.027-24.961 71.543-96.68 119.707-178.506 119.707-103.096 0-186.943-76.641-186.943-170.859 0-20.742-16.787-37.529-37.441-37.529zM736.297 273.258c-20.654 0-37.354 16.7-37.354 37.354s16.7 37.354 37.354 37.354c82.442 0 149.502 61.084 149.502 136.231 0 75.059-67.060 136.143-149.502 136.143-13.008 0-26.016-1.583-38.848-4.746-19.951-5.098-40.342 7.207-45.352 27.247-5.010 20.039 7.207 40.342 27.247 45.352 18.633 4.658 37.793 7.031 56.865 7.031 123.662 0 224.297-94.658 224.297-210.938 0.088-116.455-100.459-211.026-224.209-211.026zM661.502 274.136h-411.24c-20.654 0-37.354 14.942-37.354 35.596s16.7 35.596 37.354 35.596h411.24c20.654 0 37.354-14.942 37.354-35.596s-16.7-35.596-37.354-35.596zM736.297 274.135h-74.795c-20.654 0-37.354 14.942-37.354 35.596s16.7 35.596 37.354 35.596h74.795c20.654 0 37.354-14.942 37.354-35.596s-16.7-35.596-37.354-35.596zM250.261 273.258c-103.008 0-186.855 79.013-186.855 176.221s83.849 176.221 186.855 176.221c20.654 0 37.354-16.7 37.354-37.354s-16.7-37.354-37.354-37.354c-61.875 0-112.148-45.527-112.148-101.513s50.362-101.513 112.148-101.513c20.654 0 37.354-16.7 37.354-37.354s-16.7-37.354-37.354-37.354zM962-28.646c0-20.654-16.7-37.354-37.354-37.354h-825.293c-20.654 0-37.354 16.7-37.354 37.354v226.758c0 20.654 16.7 37.354 37.354 37.354h825.205c20.654 0 37.354-16.7 37.354-37.354v-226.758zM138.464 10.464h747.070v148.535h-747.070v-148.535zM781.008 86.17c0-19.341 15.679-35.019 35.019-35.019s35.019 15.679 35.019 35.019c0 19.341-15.679 35.019-35.019 35.019-19.341 0-35.019-15.679-35.019-35.019z"  horiz-adv-x="1024" />

    
    <glyph glyph-name="m-customer" unicode="&#58897;" d="M822.77 196.414h2.007c12.035 0 21.729-9.69 21.729-21.731v-218.953c0-12.033-9.695-21.731-21.729-21.731h-2.007c-12.033 0-21.727 9.697-21.727 21.731v218.953c0 11.702 9.695 21.731 21.727 21.731zM954.816 66.040v-2.001c0-12.037-9.693-21.731-21.729-21.731h-218.96c-12.031 0-21.729 9.695-21.729 21.731v2.001c0 12.037 9.697 21.731 21.729 21.731h218.959c12.038 0 21.731-9.695 21.731-21.731zM468.593 647.54c78.72 0 183.688-24.57 183.688-236.845 0-17.387 14.379-31.76 31.761-31.76 17.384 0 31.76 14.372 31.76 31.76 0 248.041-134.050 299.691-246.54 299.691-112.484 0-246.536-52.148-246.536-299.691 0-104.8 48.136-206.092 123.186-262.918v-4.679c-166.81-23.908-273.115-91.932-273.115-176.171 0-17.382 14.376-31.761 31.758-31.761 17.384 0 31.758 14.378 31.758 31.761 0 44.456 91.595 100.787 245.033 117.668 15.878 1.505 28.077 15.377 28.077 31.258v48.637c0 10.697-5.683 20.388-14.376 26.572-65.017 42.459-108.978 130.877-108.978 219.963-0.498 212.609 103.802 236.512 182.526 236.512zM858.874 493.598l-39.947 10.194c-12.705 182.021-165.142 326.265-350.334 326.265-188.706 0-342.648-149.426-350.839-335.958l-23.562-19.889c-7.19-6.182-11.2-14.875-11.2-24.067v-124.854c0-17.384 14.377-31.761 31.76-31.761s31.758 14.377 31.758 31.761v109.979l23.566 19.388c7.188 6.184 11.197 14.873 11.197 24.067 0 159.121 129.37 287.99 287.99 287.99 158.621 0 287.992-129.368 287.992-287.99 0-14.376 9.696-27.077 24.068-30.754l39.447-9.697v-113.491c0-17.384 14.374-31.756 31.758-31.756 17.382 0 31.756 14.372 31.756 31.756v138.061c-1.338 14.873-11.032 27.746-25.405 30.756zM740.704 364.73c-5.682-16.883-58.334-59.835-234.838-59.835-17.382 0-31.758-14.377-31.758-31.762 0-17.381 14.377-31.753 31.758-31.753 268.435 0 294.675 93.597 297.184 112.486l-31.253 4.010-31.090 6.855zM592.444 143.767v21.058c0 17.387-14.372 31.76-31.756 31.76-17.382 0-31.76-14.372-31.76-31.76v-48.636c0-15.884 12.2-29.587 28.079-31.26 16.38-2.004 32.259-4.010 47.135-6.683v64.016c-3.504 0-7.684 0.5-11.699 1.505z"  horiz-adv-x="1025" />

    
    <glyph glyph-name="zuoyoujiantou2" unicode="&#58882;" d="M281.241-40.602l36.198-36.198 450.56 450.56-450.56 450.56-36.198-36.198 414.362-414.362z"  horiz-adv-x="1024" />

    
    <glyph glyph-name="shouhou" unicode="&#59257;" d="M853.536 656.771c-12.417 10.652-26.5 16.387-42.731 18.021-9.586 0.965-19.768-0.402-29.381-0.45-10.96-0.054-21.922 0.27-32.865 0.854-13.178 0.703-29.028 2.159-40.261 3.752-13.405 1.901-27.247 3.966-40.089 8.387a97.024 97.024 0 0 0-3.305 1.229c-3.788 1.458 3.103-1.384-0.66 0.259-2.255 0.984-4.463 2.073-6.656 3.187-4.96 2.52-9.738 5.39-14.419 8.391-4.502 2.886-8.864 5.987-13.158 9.173a276.147 276.147 0 0 0-3.246 2.456c2.805-2.143-0.778 0.634-1.104 0.893a360.083 360.083 0 0 0-7.396 6.048c-8.515 7.121-16.7 14.629-24.75 22.269-12.278 11.653-23.851 24.192-36.699 35.229-21.506 18.472-52.455 22.06-77.985 9.946-13.093-6.212-22.833-20.237-32.349-30.646-14.063-15.382-28.768-30.211-45.066-43.241-0.328-0.262-3.907-3.016-1.108-0.877-1.084-0.828-2.182-1.637-3.28-2.446a213.47 213.47 0 0 0-6.702-4.715c-4.884-3.319-9.946-6.369-15.131-9.191-2.376-1.293-4.801-2.493-7.243-3.657a136.554 136.554 0 0 0-3.678-1.667c3.358 1.482-0.736-0.271-1.198-0.453-5.542-2.179-11.251-3.813-17.049-5.148-27.499-6.331-53.705-8.709-82.563-9.707-11.12-0.384-22.254-0.427-33.377-0.133-10.899 0.288-21.303 0.612-32.007-2.366-28.165-7.836-49.209-34.209-49.209-63.611v-76.639c0-38.223 2.156-76.1 8.116-113.902 12.792-81.132 43.459-159.314 88.961-227.671 35.873-53.89 80.487-101.867 131.146-142.12 31.479-25.014 65.151-48.192 101.456-65.694 15.238-7.347 28.33-11.971 46.209-7.723 8.743 2.078 17.51 7.223 25.465 11.303 38.922 19.966 75.044 45.71 108.469 73.804 51.22 43.05 95.736 94.378 130.648 151.478 44.836 73.331 71.778 155.881 81.679 241.095 3.83 32.958 4.112 65.909 4.112 99.019v45.818c0 16.103-1.06 31.293-9.912 45.549-3.182 5.116-7.233 9.845-11.684 13.897-6.342 5.776-15.993 6.28-22.273 0-5.855-5.855-6.35-16.492 0-22.273a79.3 79.3 0 0 0 3.437-3.326c0.027-0.028 3.311-3.951 1.558-1.638 1.872-2.47 3.392-5.186 4.771-7.953 2.165-4.345-0.889 2.641 0.711-1.929 0.507-1.449 0.874-2.942 1.24-4.431 0.068-0.275 0.8-5.184 0.426-1.888 0.175-1.542 0.226-3.113 0.226-4.664V555.37c0-32.508-0.103-64.839-3.488-97.234a600.242 600.242 0 0 0-0.954-8.466c-0.166-1.401-0.342-2.8-0.518-4.2-0.06-0.475-0.674-5.124-0.169-1.38a601.991 601.991 0 0 0-2.699-17.828c-1.841-11.112-4.036-22.165-6.514-33.152-4.724-20.953-10.687-41.622-17.746-61.905-3.375-9.698-7.048-19.292-10.95-28.79-0.461-1.121-0.929-2.24-1.396-3.358 1.562 3.731-0.032-0.056-0.302-0.685a561.09 561.09 0 0 0-9.369-20.632c-8.248-17.276-17.432-34.102-27.386-50.453-9.422-15.479-19.622-30.479-30.446-45.008a621.6 621.6 0 0 0-3.806-5.042c-0.518-0.68-2.769-3.599-0.089-0.132a606.266 606.266 0 0 0-10.31-12.941 607.453 607.453 0 0 0-16.369-19.149c-20.375-22.9-42.508-44.228-65.995-63.916a634.75 634.75 0 0 0-15.921-12.9c-1.013-0.795-5.617-4.354-1.184-0.935a624.501 624.501 0 0 0-11.639-8.752 610.604 610.604 0 0 0-28.639-19.81c-14.488-9.428-29.399-18.266-44.809-26.106-4.571-2.325-9.193-4.563-13.904-6.592-2.275-0.979 5.076 2.081 1.277 0.553-0.656-0.264-1.316-0.518-1.98-0.759-0.512-0.187-2.686-0.713-1.82-0.615-6.91-0.776-10.309-0.653-16.282 1.813-1.844 0.761 5.091-2.201 1.051-0.429a197.73 197.73 0 0 0-3.187 1.438 272.66 272.66 0 0 0-7.393 3.557c-14.995 7.465-29.477 15.97-43.587 24.983-9.588 6.124-18.985 12.546-28.212 19.202a629.137 629.137 0 0 0-15.213 11.343c-2.408 1.851 3.108-2.407 0.699-0.538a601.192 601.192 0 0 0-5.647 4.442 638.365 638.365 0 0 0-8.265 6.689 627.168 627.168 0 0 0-65.702 62.543 604.321 604.321 0 0 0-24.111 28.263 619.462 619.462 0 0 0-5.757 7.305c2.838-3.653-0.154 0.214-0.712 0.944-10.873 14.255-21.05 29.035-30.55 44.237-10.037 16.063-19.218 32.655-27.578 49.649-4.354 8.851-8.443 17.83-12.319 26.9-1.609 3.767 1.302-3.118-0.279 0.672a546.852 546.852 0 0 0-4.086 10.109 551.325 551.325 0 0 0-5.616 14.927c-7.213 19.97-13.204 40.373-18.104 61.03-2.57 10.83-4.783 21.742-6.721 32.701a584.873 584.873 0 0 0-3.204 20.331c-0.647 4.591 0.425-3.286-0.182 1.325-0.427 3.243-0.815 6.49-1.188 9.739-3.836 33.368-3.991 66.778-3.991 100.299v46.516 12.597 0.854c0 0.613 0.513 6.658 0.06 3.564 0.445 3.039 1.325 5.996 2.336 8.888 1.599 4.574-1.275-2.488 0.887 1.858 0.919 1.847 2.036 3.587 3.175 5.304 2.694 4.06-1.812-1.987 1.384 1.737 1.032 1.202 2.172 2.306 3.308 3.407-0.009-0.008 3.954 3.315 1.703 1.607 1.264 0.959 2.611 1.803 3.954 2.645 1.344 0.843 2.758 1.565 4.169 2.286 4.442 2.27-2.596-0.861 2.082 0.884 1.492 0.557 3.028 0.984 4.561 1.41 0.561 0.156 6.449 1.275 3.667 0.914 9.43 1.223 19.609-0.202 29.086-0.278 24.997-0.203 50.055 1.272 74.844 4.485 15.332 1.988 30.845 4.245 45.762 8.406 11.615 3.24 22.833 8.401 33.305 14.33 20.165 11.416 38.156 26.853 54.613 43.052 12.304 12.11 23.533 25.194 35.353 37.759 1.702 1.809 3.438 3.589 5.257 5.28 1.127 1.047 4.353 3.504-0.771-0.417 1.32 1.011 2.733 1.861 4.166 2.699a38.84 38.84 0 0 0 2.943 1.474c-1.214-0.571-0.93-0.514 0.853 0.17 1.565 0.53 3.183 0.893 4.792 1.26 0.042 0.009 5.314 0.745 2.358 0.425 3.326 0.36 6.688 0.351 10.024 0.198 4.466-0.204 11.881-2.57 16.762-5.333a34.445 34.445 0 0 0 3.479-2.291c-4.986 3.684-1.07 0.801 0.058-0.155 2.552-2.162 4.99-4.458 7.416-6.759 6.303-5.976 12.437-12.129 18.646-18.2 16.345-15.983 33.166-31.339 51.345-45.229 14.373-10.982 29.79-20.332 46.788-26.65 9.662-3.592 20.051-5.283 30.166-7.044 13.267-2.31 26.67-3.956 40.077-5.195 19.166-1.772 38.439-2.447 57.683-2.23 6.972 0.079 13.968 0.692 20.936 0.592 1.071-0.031 2.141-0.092 3.209-0.185 5.071-0.364-2.836 0.587 2.138-0.349 2.604-0.49 5.141-1.274 7.644-2.127 1.764-0.68 1.976-0.747 0.636-0.199 1.447-0.637 2.836-1.398 4.221-2.158 1.388-0.76 2.704-1.641 4.018-2.52 4.106-2.748-1.956 1.781 1.803-1.443 6.51-5.584 15.859-6.415 22.273 0 5.718 5.723 6.518 16.681-0.004 22.275zM323.054 407.274c7.335 7.335 19.218 7.335 26.553 0l117.229-117.22c7.335-7.334 7.335-19.227 0-26.562-7.335-7.325-19.218-7.325-26.553 0l-117.229 117.22c-7.335 7.336-7.335 19.228 0 26.562zM440.284 290.055l234.441 215.664c7.316 7.326 19.217 7.326 26.552 0 7.335-7.334 7.335-19.227 0-26.562l-234.44-215.663c-7.335-7.325-19.218-7.325-26.553 0-7.335 7.334-7.335 19.227 0 26.561z"  horiz-adv-x="1024" />

    
    <glyph glyph-name="zhexiantu" unicode="&#58940;" d="M862 521.5c-32.4 0-58.7-26.3-58.7-58.7 0-7.8 1.6-15.4 4.4-22.2L633.9 278.7c-9.6 6.5-20.9 10-32.5 10-6.1 0-12-1-17.7-2.8l-55.5 69.9c4.2 8.2 6.6 17.1 6.6 26.5 0 32.4-26.3 58.7-58.7 58.7-32.4 0-58.7-26.3-58.7-58.7 0-2.9 0.5-5.8 1-8.7L278.2 263.8c-9.3 6-20.2 9.1-31.3 9.2-32-0.7-57.5-26.8-57.5-58.7 0-32 25.6-58.1 57.5-58.7 32.4 0 58.7 26.3 58.7 58.8 0 6-1.1 11.7-2.8 17.1l135.6 106.3c0.3-0.3 0.6-0.8 1-1 10.4-8.4 23.4-13 36.8-13 7.8 0 15.3 1.5 22.3 4.4l53.4-67.3c-5.7-9.2-9.1-19.7-9.1-30.8 0-32.3 26.3-58.7 58.7-58.7 32.4 0 58.7 26.3 58.7 58.7 0 5.4-1 10.6-2.4 15.5l177.6 165.3c8.2-4.3 17.3-6.6 26.6-6.7 32.4 0 58.7 26.3 58.7 58.7 0 32.3-26.3 58.6-58.7 58.6zM247 196.2c-10 0-18.1 8.1-18.1 18.1s8.1 18.1 18.1 18.1c10 0 18.1-8.1 18.1-18.1s-8.2-18.1-18.1-18.1z m217.9 172.1c-5.8 4.7-8.1 12.5-5.8 19.6 2.3 7.1 8.7 12.1 16.2 12.5 7.5 0.4 14.4-3.8 17.5-10.7 3-6.8 1.6-14.8-3.7-20.1h-0.1c-7.2-7.1-19.8-4.8-24.1-1.3z m136.6-156.4c-4.8 0-9.4 1.9-12.8 5.3s-5.3 8-5.3 12.8c0 5.7 2.5 10.9 7 14.4 0.1 0.1 0.3 0.1 0.3 0.2h0.1c6.3 4.6 14.9 4.7 21.3 0.1 6.3-4.6 9-12.8 6.6-20.2-2.4-7.6-9.4-12.6-17.2-12.6zM862 444.7c-10 0-18 8.1-18 18.1 0 10 8 18 18 18 6.6 0.2 12.8-3.1 16.2-8.8 3.4-5.7 3.4-12.8 0-18.4-3.4-5.7-9.6-9.1-16.2-8.9zM136.7 792.4c-18.4 0-33.4-15-33.4-33.4v-750c0-18.4 15-33.4 33.4-33.4s33.4 15 33.4 33.4V759c-0.1 18.4-15 33.4-33.4 33.4zM919.9 9.1c-0.1 18.4-15 33.3-33.4 33.3h-750c-18.4 0-33.3-15-33.3-33.3 0-18.4 15-33.4 33.3-33.4h750c18.5 0.1 33.4 15 33.4 33.4z"  horiz-adv-x="1024" />

    
    <glyph glyph-name="biaoqian" unicode="&#59010;" d="M509.87 702.198c-3.85 3.85-9.032 6-14.48 6l-265.359 0.02c-11.284 0-20.439-9.113-20.48-20.397l-0.942-266.343a20.445 20.445 0 0 1 6-14.56l348.06-348.058c3.85-3.85 9.031-6.001 14.479-6.001s10.65 2.15 14.48 6l266.321 266.322c8.008 8.008 8.008 20.951 0 28.96L509.87 702.197z m67.277-599.9L249.61 429.855l0.84 237.404 236.482-0.02L814.51 339.66 577.147 102.298zM363.561 499.794a2.61 2.61 0 1 1 106.906 0 2.61 2.61 0 1 1-106.906 0z"  horiz-adv-x="1024" />

    
    <glyph glyph-name="youxiang" unicode="&#58917;" d="M1359.35-66.136l-408.149 474.71 408.625 423.363c2.912-8.736 4.933-17.888 4.933-27.515v-841.616c0-10.163-2.199-19.79-5.408-28.942zM817.727 412.436L682.41 306.476l-134.9 105.722-68.521 53.604L67.926 891.067C76.424 893.504 85.219 895.227 94.49 895.227h1175.957c9.27 0 18.007-1.723 26.505-4.16L886.128 466.1l-68.402-53.663zM5.586-66.136a85.635 85.635 0 0 0-5.408 28.942V804.422c0 9.627 2.02 18.779 4.933 27.515l408.863-423.542L5.586-66.135zM682.41 198.08L882.74 354.97l413.142-479.107a94.728 94.728 0 0 0-25.435-3.863H94.49c-8.855 0-17.293 1.605-25.435 3.803l413.38 478.929L682.409 198.08z"  horiz-adv-x="1365" />

    
    <glyph glyph-name="xing" unicode="&#58909;" d="M220.5383-128c-7.326015 0-14.399408 3.284075-19.0729 8.841742-4.799803 5.683977-6.820772 13.009991-5.557666 20.336006l58.229185 339.522881L7.578636 481.069693c-6.820772 6.694462-9.220673 16.546688-6.31553 25.641051 2.905144 9.094363 10.736401 15.662514 20.209695 17.05193l340.912298 49.513754L514.715678 882.105834c4.16825 8.46281 12.883681 13.894166 22.356975 13.894166s18.188726-5.431356 22.356976-13.894166l152.456889-308.829406 340.912298-49.513754c9.346984-1.389417 17.178241-7.957568 20.209695-17.05193 2.905144-9.094363 0.505242-18.946589-6.31553-25.641051L820.008388 240.700629l58.229184-339.522881c1.642038-9.346984-2.273591-18.820279-9.978537-24.377945-7.704946-5.557666-17.936105-6.31553-26.272604-1.894659L537.072653 35.19329 232.158875-125.094856c-3.536697-1.894659-7.578636-2.905144-11.620575-2.905144zM78.691501 481.574935l219.780437-214.22277c5.936598-5.683977 8.589121-14.020476 7.199704-22.104354l-51.913655-302.513877 271.694091 142.730973c7.326015 3.789318 15.915135 3.789318 23.24115 0l271.694092-142.857284-51.913655 302.513877c-1.389417 8.083878 1.263106 16.420377 7.199704 22.104354l219.780436 214.222771-303.776983 44.082398c-8.083878 1.136795-15.157271 6.31553-18.820278 13.641544L537.072653 814.655976l-135.910201-275.357098c-3.663007-7.326015-10.61009-12.504749-18.820279-13.641545L78.691501 481.574935z"  horiz-adv-x="1074" />

    
    <glyph glyph-name="gongju1" unicode="&#58880;" d="M418.927 315.182L286.206 182.411l-23.585 23.634 132.771 132.722-37.14 37.14L187.794 205.45h-0.049v-0.051l-68.868-211.916 211.917 68.818h0.05l0.049 0.05v0.049L501.3 232.809l-82.373 82.373z m137.09 184.259l61.47 61.471 23.586-23.586-61.52-61.42 82.422-82.373 98.164 98.212-143.049 143-98.163-98.213 37.09-37.091zM759.84 777.496l-94.141-94.191 143.049-143.048 94.24 94.141L759.84 777.496z m-32.274-443.744c-16.98 0-35.105-5.562-53.029-14.747L446.782 546.711c9.136 17.925 14.598 35.898 14.598 52.434 0 90.565-86.098 178.252-176.614 178.252h-1.688c-0.348 0-10.625-10.428-16.236-16.038 73.039-73.039 67.031-61.172 67.031-105.958 0-36.346-58.243-93.744-93.744-93.744-7.796 0-13.853-0.198-18.868-0.198-24.727 0-25.075 5.214-87.041 67.229-5.858-5.81-16.137-15.988-16.137-16.286 1.092-91.112 87.189-178.253 178.302-178.253 16.485 0 34.161 5.214 51.54 14.003l228.55-228.501c-8.738-17.379-13.853-34.856-13.853-50.845 0-90.566 86.098-178.302 176.613-178.302h1.639c0.396 0 10.676 10.477 16.188 16.088-72.939 73.038-66.932 61.122-66.932 105.958 0 36.296 58.191 93.744 93.693 93.744 7.746 0 13.854 0.198 18.918 0.198 24.727 0 25.125-5.214 87.09-67.229 5.809 5.76 15.988 15.89 16.088 16.236-1.192 91.063-87.19 178.253-178.353 178.253z"  horiz-adv-x="1024" />

    
    <glyph glyph-name="pinpai" unicode="&#58910;" d="M1165.078743 575.99968L896.371956 887.295539A25.506897 25.506897 0 0 1 877.102147 895.999535H294.027503a25.553443 25.553443 0 0 1-19.26981-8.750542L6.050906 575.953135a23.877807 23.877807 0 0 1 0-31.743986L585.541552-128 1165.032198 544.162604a23.970898 23.970898 0 0 1 3.77018 5.39927 24.203625 24.203625 0 0 1-3.583999 26.344715l-0.186181 0.093091z m-299.752591 270.708241l226.117716-261.9577h-258.559883l-197.352638 261.9577h229.794805z m-95.185411-261.9577H400.895818l184.645734 244.968616 184.599189-244.968616zM305.803497 846.661375h229.794805l-197.352638-261.957699H79.592691L305.756952 846.661375zM79.592691 535.458608h253.48643l182.597736-505.855771-436.130711 505.855771z m307.060224 0h397.777274L585.541552-15.453142 386.60637 535.458608z m268.753333-505.855771l182.597735 505.855771h253.532975l-436.13071-505.855771z"  horiz-adv-x="1210" />

    
    <glyph glyph-name="dizhi1" unicode="&#59141;" d="M928.542373 473.209492C928.542373 706.716203 742.052881 896 512 896S95.457627 706.716203 95.457627 473.209492c0-7.410983 0.711593-14.578983 1.093424-21.833763-0.347119-3.575322-1.093424-7.029153-1.093424-10.70861C95.457627 180.414915 479.960949-114.323525 479.960949-114.323525s32.039051-24.385085 64.078102 0C576.078102-89.903729 928.542373 180.414915 928.542373 440.667119c0 3.679458-0.746305 7.115932-1.093424 10.70861 0.364475 7.25478 1.093424 14.42278 1.093424 21.833763z m-416.542373-162.659797c-88.497898 0-160.195254 72.808136-160.195254 162.659797 0 89.782237 71.697356 162.590373 160.195254 162.590372 88.480542 0 160.195254-72.808136 160.195254-162.590372 0-89.851661-71.714712-162.659797-160.195254-162.659797z"  horiz-adv-x="1024" />

    
    <glyph glyph-name="gaojianku" unicode="&#58899;" d="M24.896 529.28l425.568-240.096c16.288-9.184 37.76-13.792 59.232-13.792s42.944 4.608 59.232 13.792l425.568 240.096c32.576 18.368 33.28 49.632 1.568 69.472L567.328 866.656c-15.872 9.92-36.768 14.88-57.664 14.88s-41.792-4.96-57.664-14.88L23.328 598.72c-31.712-19.808-31.008-51.072 1.568-69.44z m461.024 283.104c3.808 2.368 12.288 5.152 23.744 5.152s19.936-2.784 23.744-5.152l394.976-246.88-390.944-220.576c-4.512-2.56-14.496-5.536-27.776-5.536s-23.264 2.976-27.776 5.536L90.944 565.504l394.976 246.88zM970.304 391.52l-424.544-239.488c-18.88-10.688-53.312-10.688-72.224 0L49.024 391.52a32 32 0 0 1-31.424-55.744l424.48-239.488c19.296-10.88 43.424-16.32 67.584-16.32s48.32 5.44 67.552 16.32l424.512 239.488a32 32 0 0 1-31.424 55.744zM970.304 197.6L545.76-41.92c-18.88-10.688-53.312-10.688-72.224 0L49.024 197.6a32 32 0 1 1-31.424-55.744l424.48-239.52c19.296-10.88 43.424-16.32 67.584-16.32s48.32 5.44 67.552 16.32l424.512 239.52a32 32 0 0 1-31.424 55.744z"  horiz-adv-x="1024" />

    
    <glyph glyph-name="keji" unicode="&#58912;" d="M553.237282 117.776065h-0.050203c-7.989452 0-16.091861 0.080683-24.079521 0.231292-139.472959 2.67869-270.492088 28.226649-368.938421 71.937345-104.558551 46.430623-161.438574 108.987174-160.149432 176.135509 1.25149 65.251378 57.604382 124.406674 158.688166 166.561075 94.734895 39.506192 220.970393 61.263823 355.444566 61.263823 7.971523 0 16.072139-0.077097 24.072349-0.225913 139.474752-2.673311 270.495674-28.22127 368.947386-71.942723 104.553172-46.430623 161.436781-108.980002 160.144053-176.124751-1.247904-65.262135-57.613346-124.412053-158.693545-166.566455-94.715172-39.507985-220.943499-61.269202-355.385398-61.269202M514.152437 548.935753c-128.673931 0-248.761352-20.527657-338.137075-57.801608-82.402881-34.365761-130.158506-80.258495-131.038851-125.919936-0.903654-47.198012 47.734109-96.106513 133.44501-134.165783 93.081781-41.33681 217.934903-65.514943 351.543075-68.075298 7.702578-0.152402 15.512734-0.224121 23.224276-0.22412h0.046617c128.647036 0 248.712942 20.527657 338.086871 57.796228 82.392124 34.363968 130.153127 80.260288 131.029887 125.925316 0.905447 47.205184-47.732316 96.111892-133.441425 134.162197-93.090746 41.345774-217.938489 65.518529-351.544867 68.080676a1224.354881 1224.354881 0 0 1-23.213518 0.222328M756.941422-109.51453c-59.176812 0-131.026301 32.339711-207.793893 93.513886-75.842422 60.440852-149.829126 143.673876-213.940178 240.68763-76.909236 116.372397-130.194365 238.778122-150.026351 344.649123-21.076304 112.447597-1.830617 194.769795 54.203127 231.801695 20.14217 13.305594 44.037015 20.061486 71.005002 20.061487 59.176812 0 131.035266-32.332539 207.7921-93.513886 75.847801-60.446231 149.832711-143.675669 213.94197-240.693009 76.903858-116.37419 130.181814-238.765572 150.026352-344.641952 21.070925-112.456562 1.81986-194.771588-54.208506-231.803488-20.143962-13.310973-44.02805-20.061486-70.999623-20.061486M310.389129 776.229934c-18.001369 0-33.548169-4.245741-46.208296-12.613509-39.389649-26.03206-52.073084-93.829448-34.801451-186.000403 18.758-100.115583 69.667451-216.649348 143.349349-328.130536 61.543526-93.13557 132.243724-172.771906 204.446428-230.317121 67.729255-53.982592 131.578534-83.713539 179.766263-83.713538 17.999576 0 33.549962 4.247534 46.204709 12.606337 39.387857 26.033853 52.080256 93.831241 34.797866 186.007574-18.754415 100.110204-69.662072 216.642176-143.338592 328.126951-61.548905 93.13557-132.243724 172.777285-204.451806 230.318913C422.417172 746.495401 358.578651 776.229934 310.389129 776.229934M336.245478-126.571007c-21.815006 0-41.914144 4.884037-59.874275 14.774032-58.846906 32.379156-84.690705 112.868944-72.783624 226.659472 11.211411 107.126077 54.414697 233.438672 121.658059 355.65255 73.393232 133.382257 167.843046 246.711993 259.133654 310.930622 10.15894 7.146759 24.188892 4.706533 31.333858-5.448821 7.144966-10.162526 4.706533-24.185306-5.455993-31.332064-85.88482-60.417544-175.403979-168.24467-245.60394-295.83565-64.417649-117.082412-105.734736-237.347336-116.341917-338.651655-9.757316-93.266457 8.369561-159.819527 49.733265-182.574046 41.363704-22.758106 107.278479-2.454569 180.845628 55.712803 79.89273 63.171538 159.371286 162.448014 223.785348 279.528632 70.199961 127.587394 113.367388 260.914069 118.428929 365.804318 0.604229 12.403732 11.137899 21.978166 23.545217 21.377523 12.401939-0.59885 21.976373-11.139692 21.381108-23.543424-5.380688-111.497325-50.558029-251.940279-123.949468-385.31895C674.841552 118.946871 591.273243 14.845527 506.779764-51.963938c-62.344981-49.293988-120.883498-74.607069-170.534286-74.607069M655.305404 782.408491c0-29.60006 12.181405-59.013652 33.110686-79.950105 20.929281-20.929281 50.348252-33.110686 79.951898-33.110686 29.601853 0 59.013652 12.181405 79.944726 33.110686 20.93466 20.936453 33.112479 50.351838 33.112479 79.950105 0 29.601853-12.177819 59.020824-33.112479 79.950106C827.38164 883.282499 797.969841 895.471075 768.367988 895.471075c-29.603646 0-59.022617-12.188577-79.951898-33.112478-20.929281-20.929281-33.110686-50.348252-33.110686-79.950106"  horiz-adv-x="1068" />

    
    <glyph glyph-name="xialajiantou2" unicode="&#58950;" d="M512 896C232.106667 896 0 663.893333 0 384S232.106667-128 512-128 1024 104.106667 1024 384 791.893333 896 512 896z m0-983.04C252.586667-87.04 40.96 124.586667 40.96 384 40.96 643.413333 252.586667 855.04 512 855.04c259.413333 0 471.04-211.626667 471.04-471.04 0-259.413333-211.626667-471.04-471.04-471.04zM532.48 151.893333V554.666667h-47.786667v-395.946667L307.2 308.906667 273.066667 281.6l238.933333-204.8L750.933333 281.6l-34.133333 27.306667z"  horiz-adv-x="1024" />

    
    <glyph glyph-name="you" unicode="&#59007;" d="M779.47633332 836.909l-38.61099999 38.61099999-480.597-480.59699999 480.597-480.597 38.611 38.61100001-441.986 441.986z"  horiz-adv-x="1024" />

    
    <glyph glyph-name="yulunjiankong" unicode="&#58903;" d="M237.4-127.5c-9.2 0-17.8 4.9-22.3 12.8l-67.5 113.1h-69c-42.4 0-76.9 34.5-76.9 76.9V647c0 42.4 34.5 76.9 76.9 76.9h413v-20h-413c-31.4 0-56.9-25.5-56.9-56.9v-571.7c0-31.4 25.5-56.9 56.9-56.9h80.3l73.5-123c1-1.7 3-2.9 5-2.9 2.1 0 4 1.1 5 2.9l0.1 0.2 73.4 122.9H947c31.4 0 56.9 25.5 56.9 56.9V647c0 31.4-25.5 56.9-56.9 56.9H824v20h123c42.4 0 76.9-34.5 76.9-76.9v-571.7c0-42.4-34.5-76.9-76.9-76.9H327.3l-67.5-113.1c-4.6-7.9-13.2-12.8-22.4-12.8zM515.1 526.4c-34.2 0-63.5 25.5-68.2 59.3-0.5 3.1-0.7 6.3-0.7 9.5 0 18.4 7.1 35.9 20.1 49.1 13.1 13.4 30.4 20.8 48.8 20.8 37.9 0 68.8-30.9 68.8-68.9 0-3.1-0.2-5.7-0.5-8.2-2-16.6-9.9-32.1-22.3-43.5-12.7-11.7-29.1-18.1-46-18.1z m0 118.7c-27 0-48.9-22.4-48.9-49.9 0-2.2 0.2-4.4 0.5-6.6 3.4-24.1 24.2-42.2 48.4-42.2 24.3 0 45.6 19.4 48.5 44.1v0.2c0.2 1.5 0.3 3.4 0.3 5.6 0 26.9-21.9 48.8-48.8 48.8zM793.8 526.4c-34.1 0-63.4 25.9-68.2 60.3-0.5 3.1-0.7 6.3-0.7 9.5 0 18.4 7.2 35.5 20.2 48.3 12.9 12.6 30.2 19.6 48.7 19.6 37.9 0 68.8-30.9 68.8-68.9 0-3.1-0.2-5.8-0.5-8.1-4.1-34.6-33.4-60.7-68.3-60.7z m0 117.7c-27.4 0-48.9-21-48.9-47.9 0-2.2 0.2-4.4 0.5-6.6 3.4-24.6 24.3-43.2 48.4-43.2 24.8 0 45.6 18.5 48.5 43.1v0.2c0.2 1.5 0.3 3.4 0.3 5.6 0 26.9-21.9 48.8-48.8 48.8zM654.5 757.3c-34.2 0-63.5 25.5-68.2 59.3-0.5 3.1-0.7 6.3-0.7 9.5 0 38 30.9 68.9 68.9 68.9 37.9 0 68.8-30.9 68.8-68.9 0-3.1-0.2-5.8-0.5-8.2-4.1-34.5-33.4-60.6-68.3-60.6z m0 117.7c-27 0-48.9-21.9-48.9-48.9 0-2.2 0.2-4.4 0.5-6.6 3.4-24.1 24.2-42.2 48.4-42.2 24.8 0 45.6 18.5 48.5 43.1v0.2c0.2 1.5 0.3 3.4 0.3 5.5 0 27-21.9 48.9-48.8 48.9zM644.4 767.3h20v-89.8h-20zM564.2 625.606l84.392 60.098 11.602-16.292-84.392-60.098zM648.865 669.273l11.148 16.606 85.52-57.412-11.147-16.606zM109.9 556.5h283.2v-20H109.9zM109.9 381.5H918v-20H109.9zM109.9 205.3h807.7v-20H109.9z"  horiz-adv-x="1024" />

    


  </font>
</defs>
</svg>
